# Blender v2.79 (sub 0) OBJ File: ''
# www.blender.org
mtllib Banner.mtl
o Circle
v -0.511011 -0.511011 -1.000000
v -0.511011 -0.315921 -0.980785
v -0.511011 -0.128327 -0.923879
v -0.511011 0.044559 -0.831470
v -0.511011 0.196096 -0.707107
v -0.511011 0.320459 -0.555570
v -0.511011 0.412869 -0.382683
v -0.511011 0.469774 -0.195090
v -0.511011 0.488989 -0.000000
v -0.511011 0.469774 0.195090
v -0.511011 0.412869 0.382683
v -0.511011 0.320459 0.555570
v -0.511011 0.196096 0.707107
v -0.511011 0.044559 0.831470
v -0.511011 -0.128328 0.923880
v -0.511011 -0.315921 0.980785
v -0.511011 -0.511011 1.000000
v -0.511011 -0.511011 -0.711226
v -0.511011 -0.372258 -0.697560
v -0.511011 -0.238836 -0.657087
v -0.511011 -0.115875 -0.591363
v -0.511011 -0.008098 -0.502913
v -0.511011 0.080352 -0.395136
v -0.511011 0.146076 -0.272174
v -0.511011 0.186549 -0.138753
v -0.511011 0.200215 -0.000000
v -0.511011 0.186549 0.138753
v -0.511011 0.146076 0.272174
v -0.511011 0.080352 0.395136
v -0.511011 -0.008098 0.502913
v -0.511011 -0.115875 0.591363
v -0.511011 -0.238837 0.657087
v -0.511011 -0.372258 0.697560
v -0.511011 -0.511011 0.711226
vn 1.0000 0.0000 0.0000
usemtl None
s off
f 9//1 26//1 25//1
f 1//1 2//1 19//1
f 3//1 4//1 20//1
f 5//1 6//1 23//1
f 7//1 8//1 24//1
f 9//1 10//1 27//1
f 11//1 12//1 29//1
f 13//1 14//1 31//1
f 15//1 16//1 32//1
f 17//1 34//1 33//1
f 17//1 33//1 16//1
f 14//1 15//1 32//1
f 10//1 11//1 28//1
f 6//1 7//1 23//1
f 2//1 3//1 20//1
f 19//1 18//1 1//1
f 20//1 19//1 2//1
f 16//1 33//1 32//1
f 14//1 32//1 31//1
f 20//1 4//1 21//1
f 21//1 4//1 5//1
f 13//1 31//1 30//1
f 13//1 30//1 29//1
f 22//1 21//1 5//1
f 23//1 22//1 5//1
f 12//1 13//1 29//1
f 11//1 29//1 28//1
f 23//1 7//1 24//1
f 24//1 8//1 25//1
f 10//1 28//1 27//1
f 9//1 27//1 26//1
f 25//1 8//1 9//1
